<?xml version="1.0" encoding="utf-8"?>
<!-- Generator: Adobe Illustrator 16.0.0, SVG Export Plug-In . SVG Version: 6.00 Build 0)  -->
<!DOCTYPE svg PUBLIC "-//W3C//DTD SVG 1.1//EN" "http://www.w3.org/Graphics/SVG/1.1/DTD/svg11.dtd">
<svg version="1.1"
	 id="svg2" xmlns:rdf="http://www.w3.org/1999/02/22-rdf-syntax-ns#" xmlns:cc="http://creativecommons.org/ns#" xmlns:dc="http://purl.org/dc/elements/1.1/" xmlns:svg="http://www.w3.org/2000/svg" xmlns:inkscape="http://www.inkscape.org/namespaces/inkscape" xmlns:sodipodi="http://sodipodi.sourceforge.net/DTD/sodipodi-0.dtd" xmlns:ns1="http://sozi.baierouge.fr"
	 xmlns="http://www.w3.org/2000/svg" xmlns:xlink="http://www.w3.org/1999/xlink" x="0px" y="0px" width="250px" height="250px"
	 viewBox="0 0 250 250" enable-background="new 0 0 250 250" xml:space="preserve">
<g id="g11810" transform="translate(129.66 -794.64)">
	<g id="g11561">
		<path id="path11565" fill="#047BAD" stroke="#000000" stroke-width="4.2813" stroke-linecap="round" stroke-linejoin="round" d="
			M-78.545,956.902h20.741l3.114-2.613h-20.741L-78.545,956.902z"/>
		<path id="path11569" fill="#047BAD" stroke="#000000" stroke-width="4.2813" stroke-linecap="round" stroke-linejoin="round" d="
			M-57.804,1003.79h-20.741l3.114-2.613h20.741L-57.804,1003.79z"/>
		<path id="rect6105" fill="#047BAD" stroke="#000000" stroke-width="4.2813" stroke-linecap="round" stroke-linejoin="round" d="
			M-78.545,956.902h20.741v46.898h-20.741V956.902z"/>
		<path id="path11567" fill="#047BAD" stroke="#000000" stroke-width="4.2813" stroke-linecap="round" stroke-linejoin="round" d="
			M-57.804,956.902v46.898l3.114-2.613v-46.898L-57.804,956.902z"/>
	</g>
</g>
<g id="g11583" transform="translate(129.66 -794.64)">
	<path id="path11587" fill="#047BAD" stroke="#000000" stroke-width="3.7703" stroke-linecap="round" stroke-linejoin="round" d="
		M-106.238,967.579h20.81l3.114-2.613h-20.81L-106.238,967.579z"/>
	<path id="path11591" fill="#047BAD" stroke="#000000" stroke-width="3.7703" stroke-linecap="round" stroke-linejoin="round" d="
		M-85.428,1003.831h-20.81l3.115-2.614h20.81L-85.428,1003.831z"/>
	<path id="rect6083" fill="#047BAD" stroke="#000000" stroke-width="3.7703" stroke-linecap="round" stroke-linejoin="round" d="
		M-106.238,967.579h20.81v36.252h-20.81V967.579z"/>
	<path id="path11589" fill="#047BAD" stroke="#000000" stroke-width="3.7703" stroke-linecap="round" stroke-linejoin="round" d="
		M-85.428,967.579v36.252l3.114-2.614v-36.251L-85.428,967.579z"/>
</g>
<g id="g11817" transform="translate(129.66 -794.64)">
	<path id="path11576" fill="#047BAD" stroke="#000000" stroke-width="4.7912" stroke-linecap="round" stroke-linejoin="round" d="
		M-51.199,944.828h20.672l3.114-2.613h-20.672L-51.199,944.828z"/>
	<path id="path11580" fill="#047BAD" stroke="#000000" stroke-width="4.7912" stroke-linecap="round" stroke-linejoin="round" d="
		M-30.526,1003.763h-20.672l3.114-2.613h20.672L-30.526,1003.763z"/>
	<path id="rect6103" fill="#047BAD" stroke="#000000" stroke-width="4.7912" stroke-linecap="round" stroke-linejoin="round" d="
		M-51.199,944.828h20.672v58.929h-20.672V944.828z"/>
	<path id="path11578" fill="#047BAD" stroke="#000000" stroke-width="4.7912" stroke-linecap="round" stroke-linejoin="round" d="
		M-30.526,944.828v58.929l3.114-2.613v-58.929L-30.526,944.828z"/>
</g>
<g id="g11823" transform="translate(129.66 -794.64)">
	<path id="path11554" fill="#047BAD" stroke="#000000" stroke-width="4.873" stroke-linecap="round" stroke-linejoin="round" d="
		M-22.844,942.767h20.66l3.115-2.613h-20.661L-22.844,942.767z"/>
	<path id="path11558" fill="#047BAD" stroke="#000000" stroke-width="4.873" stroke-linecap="round" stroke-linejoin="round" d="
		M-2.183,1003.749h-20.66l3.114-2.613H0.932L-2.183,1003.749z"/>
	<path id="rect6101" fill="#047BAD" stroke="#000000" stroke-width="4.873" stroke-linecap="round" stroke-linejoin="round" d="
		M-22.844,942.767h20.66v60.993h-20.66V942.767z"/>
	<path id="path11556" fill="#047BAD" stroke="#000000" stroke-width="4.873" stroke-linecap="round" stroke-linejoin="round" d="
		M-2.183,942.767v60.993l3.115-2.613v-60.993L-2.183,942.767z"/>
</g>
<g id="g11829" transform="translate(129.66 -794.64)">
	<path id="path11543" fill="#047BAD" stroke="#000000" stroke-width="5.7502" stroke-linecap="round" stroke-linejoin="round" d="
		M4.873,918.28h20.542l3.114-2.613H7.988L4.873,918.28z"/>
	<path id="path11547" fill="#047BAD" stroke="#000000" stroke-width="5.7502" stroke-linecap="round" stroke-linejoin="round" d="
		M25.419,1003.695H4.877l3.115-2.613h20.541L25.419,1003.695z"/>
	<path id="rect6099" fill="#047BAD" stroke="#000000" stroke-width="5.7502" stroke-linecap="round" stroke-linejoin="round" d="
		M4.873,918.28h20.542v85.419H4.873V918.28z"/>
	<path id="path11545" fill="#047BAD" stroke="#000000" stroke-width="5.7502" stroke-linecap="round" stroke-linejoin="round" d="
		M25.419,918.28v85.419l3.114-2.613v-85.419L25.419,918.28z"/>
</g>
<g id="g11835" transform="translate(129.66 -794.64)">
	<path id="path11598" fill="#00FF00" stroke="#000000" stroke-width="6.3021" stroke-linecap="round" stroke-linejoin="round" d="
		M31.883,900.676H52.35l3.115-2.613H34.998L31.883,900.676z"/>
	<path id="path11602" fill="#00FF00" stroke="#000000" stroke-width="6.3021" stroke-linecap="round" stroke-linejoin="round" d="
		M52.346,1003.655H31.879l3.114-2.613h20.468L52.346,1003.655z"/>
	<path id="rect6097" fill="#047BAD" stroke="#000000" stroke-width="6.3021" stroke-linecap="round" stroke-linejoin="round" d="
		M31.883,900.676H52.35v102.978H31.883V900.676z"/>
	<path id="path11600" fill="#00FF00" stroke="#000000" stroke-width="6.3021" stroke-linecap="round" stroke-linejoin="round" d="
		M52.346,900.676v102.978l3.115-2.613V898.063L52.346,900.676z"/>
</g>
<g id="g11841" transform="translate(129.66 -794.64)">
	<path id="path11609" fill="#047BAD" stroke="#000000" stroke-width="7.0221" stroke-linecap="round" stroke-linejoin="round" d="
		M59.664,875.145h20.369l3.114-2.613H62.778L59.664,875.145z"/>
	<path id="path11613" fill="#047BAD" stroke="#000000" stroke-width="7.0221" stroke-linecap="round" stroke-linejoin="round" d="
		M80.031,1003.614H59.662l3.115-2.613h20.369L80.031,1003.614z"/>
	<path id="rect6095" fill="#047BAD" stroke="#000000" stroke-width="7.0221" stroke-linecap="round" stroke-linejoin="round" d="
		M59.664,875.145h20.369v128.464H59.664V875.145z"/>
	<path id="path11611" fill="#047BAD" stroke="#000000" stroke-width="7.0221" stroke-linecap="round" stroke-linejoin="round" d="
		M80.031,875.145v128.464l3.115-2.613V872.532L80.031,875.145z"/>
</g>
<g id="g12148" transform="translate(129.66 -794.64)">
	<path id="path11847" d="M72.714,848.457c-25.247,19.857-50.42,39.629-75.518,59.319c-4.059,8.053-8.175,16.121-12.349,24.206
		c-12.357-1.198-24.764-2.351-37.221-3.456c-19.032,9.617-38.009,19.223-56.95,28.823v2.943c19.319-9.002,38.6-17.995,57.827-26.979
		c12.897,1.199,25.847,2.353,38.842,3.459c5.045-8.048,10.149-16.112,15.309-24.193c25.607-18.574,51.136-37.062,76.592-55.464
		l-6.529-8.656L72.714,848.457z"/>
	<path id="path12001" stroke="#000000" stroke-width="4.0664" d="M62.944,845.064l17.643,21.164l9.508-25.861L62.944,845.064
		L62.944,845.064z"/>
</g>
</svg>
