<?xml version="1.0"?>
<svg xmlns:rdf="http://www.w3.org/1999/02/22-rdf-syntax-ns#" xmlns="http://www.w3.org/2000/svg" xmlns:cc="http://creativecommons.org/ns#" xmlns:xlink="http://www.w3.org/1999/xlink" xmlns:dc="http://purl.org/dc/elements/1.1/" xmlns:svg="http://www.w3.org/2000/svg" id="svg4888" viewBox="0 0 400 400" version="1.1">
  <defs id="defs4890">
    <linearGradient id="linearGradient8411" y2="367.88" gradientUnits="userSpaceOnUse" x2="315.47" y1="287.49" x1="241.41">
      <stop id="stop4158" stop-color="#fff" offset="0"/>
      <stop id="stop4160" stop-color="#fff" stop-opacity="0" offset="1"/>
    </linearGradient>
    <filter id="filter6126" color-interpolation-filters="sRGB">
      <feGaussianBlur id="feGaussianBlur6128" stdDeviation="0.53035713"/>
    </filter>
    <linearGradient id="linearGradient8413" y2="391.45" gradientUnits="userSpaceOnUse" x2="342" y1="300.86" x1="275.61">
      <stop id="stop7201" stop-color="#500" offset="0"/>
      <stop id="stop7203" stop-color="#f00" offset="1"/>
    </linearGradient>
    <radialGradient id="radialGradient8415" gradientUnits="userSpaceOnUse" cy="386.57" cx="312.78" gradientTransform="matrix(-.59327 -.59327 .71505 -.71505 243.27 849.03)" r="53.036">
      <stop id="stop7113-7" stop-color="#fff" stop-opacity=".40816" offset="0"/>
      <stop id="stop7115-7" stop-color="#fff" stop-opacity="0" offset="1"/>
    </radialGradient>
    <linearGradient id="linearGradient10449" x1="255.32" gradientUnits="userSpaceOnUse" x2="300.27" gradientTransform="matrix(.95534 0 0 .95534 136.12 14.055)" y1="286.67" y2="338.82">
      <stop id="stop4150" stop-color="#fff" offset="0"/>
      <stop id="stop4152" stop-color="#fff" stop-opacity="0" offset="1"/>
    </linearGradient>
    <filter id="filter11428" color-interpolation-filters="sRGB">
      <feGaussianBlur id="feGaussianBlur11430" stdDeviation="1.2434678"/>
    </filter>
  </defs>
  <g id="layer1" transform="translate(0 -652.36)">
    <g id="g11432" transform="matrix(2.9051 0 0 2.9051 -1001.9 -78.961)">
      <path id="path7276" transform="matrix(.97354 0 0 .97354 120.09 -12.628)" fill="#999" d="m356.79 346.11c0 29.291-23.745 53.036-53.036 53.036s-53.036-23.745-53.036-53.036 23.745-53.036 53.036-53.036 53.036 23.745 53.036 53.036z"/>
      <path id="path7278" transform="matrix(.95960 0 0 .95960 124.33 -7.8014)" fill="url(#linearGradient8411)" d="m356.79 346.11c0 29.291-23.745 53.036-53.036 53.036s-53.036-23.745-53.036-53.036 23.745-53.036 53.036-53.036 53.036 23.745 53.036 53.036z"/>
      <path id="path7280" filter="url(#filter6126)" transform="matrix(.87355 0 0 .87355 150.47 21.981)" fill="#ececec" d="m356.79 346.11c0 29.291-23.745 53.036-53.036 53.036s-53.036-23.745-53.036-53.036 23.745-53.036 53.036-53.036 53.036 23.745 53.036 53.036z"/>
      <path id="path7282" filter="url(#filter6126)" transform="matrix(.83838 0 0 .83838 161.15 34.152)" fill="#999" d="m356.79 346.11c0 29.291-23.745 53.036-53.036 53.036s-53.036-23.745-53.036-53.036 23.745-53.036 53.036-53.036 53.036 23.745 53.036 53.036z"/>
      <path id="path7284" transform="matrix(.80587 0 0 .80587 171.03 45.405)" fill="url(#linearGradient8413)" d="m356.79 346.11c0 29.291-23.745 53.036-53.036 53.036s-53.036-23.745-53.036-53.036 23.745-53.036 53.036-53.036 53.036 23.745 53.036 53.036z"/>
      <path id="path7286" transform="matrix(.75825 0 0 .75825 186.75 63.906)" fill="url(#radialGradient8415)" d="m356.79 346.11c0 29.291-23.745 53.036-53.036 53.036s-53.036-23.745-53.036-53.036 23.745-53.036 53.036-53.036 53.036 23.745 53.036 53.036z"/>
      <path id="path7288" opacity=".31771" fill="url(#linearGradient10449)" d="m414.8 284.15c-13.331 0.30069-26.186 7.358-33.336 19.742-7.6903 13.32-6.7139 29.266 1.1545 41.331 0.85306-26.532 21.132-46.515 46.324-45.054 8.2589 0.47907 16.054 3.2001 22.859 7.5908-3.2578-7.4498-8.8171-13.953-16.394-18.327-6.4867-3.7451-13.625-5.4393-20.608-5.2818z"/>
      <path id="rect7370" filter="url(#filter11428)" fill="#1a1a1a" d="m402.88 300.09-11.581 11.581 13.295 13.295-13.295 13.281 11.581 11.581 13.281-13.295 13.295 13.295 11.581-11.581-13.281-13.281 13.281-13.295-11.581-11.581-13.295 13.281-13.281-13.281z"/>
      <path id="path10457" fill="#fff" d="m403.45 301.15-11.087 11.087 12.728 12.728-12.728 12.714 11.087 11.087 12.714-12.728 12.728 12.728 11.087-11.087-12.714-12.714 12.714-12.728-11.087-11.087-12.728 12.714-12.714-12.714z"/>
    </g>
  </g>
  <metadata>
    <rdf:RDF>
      <cc:Work>
        <dc:format>image/svg+xml</dc:format>
        <dc:type rdf:resource="http://purl.org/dc/dcmitype/StillImage"/>
        <cc:license rdf:resource="http://creativecommons.org/licenses/publicdomain/"/>
        <dc:publisher>
          <cc:Agent rdf:about="http://openclipart.org/">
            <dc:title>Openclipart</dc:title>
          </cc:Agent>
        </dc:publisher>
        <dc:title>error button</dc:title>
        <dc:date>2011-02-24T17:45:45</dc:date>
        <dc:description>button, cancel, circle, clip art, clipart, delete, red, round, </dc:description>
        <dc:source>http://openclipart.org/detail/122425/error-button-by-ricardomaia</dc:source>
        <dc:creator>
          <cc:Agent>
            <dc:title>ricardomaia</dc:title>
          </cc:Agent>
        </dc:creator>
        <dc:subject>
          <rdf:Bag>
            <rdf:li>button</rdf:li>
            <rdf:li>cancel</rdf:li>
            <rdf:li>circle</rdf:li>
            <rdf:li>clip art</rdf:li>
            <rdf:li>clipart</rdf:li>
            <rdf:li>delete</rdf:li>
            <rdf:li>red</rdf:li>
            <rdf:li>round</rdf:li>
          </rdf:Bag>
        </dc:subject>
      </cc:Work>
      <cc:License rdf:about="http://creativecommons.org/licenses/publicdomain/">
        <cc:permits rdf:resource="http://creativecommons.org/ns#Reproduction"/>
        <cc:permits rdf:resource="http://creativecommons.org/ns#Distribution"/>
        <cc:permits rdf:resource="http://creativecommons.org/ns#DerivativeWorks"/>
      </cc:License>
    </rdf:RDF>
  </metadata>
</svg>
