<?xml version="1.0" encoding="utf-8"?>
<!-- Generator: Adobe Illustrator 16.0.0, SVG Export Plug-In . SVG Version: 6.00 Build 0)  -->
<!DOCTYPE svg PUBLIC "-//W3C//DTD SVG 1.1//EN" "http://www.w3.org/Graphics/SVG/1.1/DTD/svg11.dtd">
<svg version="1.1"
   id="svg2985" xmlns:inkscape="http://www.inkscape.org/namespaces/inkscape" xmlns:rdf="http://www.w3.org/1999/02/22-rdf-syntax-ns#" xmlns:sodipodi="http://sodipodi.sourceforge.net/DTD/sodipodi-0.dtd" xmlns:cc="http://creativecommons.org/ns#" xmlns:dc="http://purl.org/dc/elements/1.1/" xmlns:svg="http://www.w3.org/2000/svg" xmlns:ns1="http://sozi.baierouge.fr" inkscape:version="0.48.0 r9654" sodipodi:docname="Hand.cdr"
   xmlns="http://www.w3.org/2000/svg" xmlns:xlink="http://www.w3.org/1999/xlink" x="0px" y="0px" width="250px" height="250px"
   viewBox="0 0 250 250" enable-background="new 0 0 250 250" xml:space="preserve">
<sodipodi:namedview  showgrid="false" inkscape:cy="562.51833" inkscape:cx="81.672053" borderopacity="1" objecttolerance="10" inkscape:zoom="0.49982775" gridtolerance="10" pagecolor="#ffffff" guidetolerance="10" bordercolor="#666666" id="namedview2995" inkscape:window-height="844" inkscape:pageopacity="0" inkscape:window-width="1440" inkscape:window-x="-4" inkscape:pageshadow="2" inkscape:window-y="-4" inkscape:window-maximized="1" inkscape:current-layer="svg2985">
  </sodipodi:namedview>
<g id="g3782" transform="translate(24.734 30.745)">
  
    <linearGradient id="path2991_1_" gradientUnits="userSpaceOnUse" x1="738.807" y1="-1300.2079" x2="737.1029" y2="-1577.7454" gradientTransform="matrix(0.297 0 0 -0.297 -154.0768 -226.8582)">
    <stop  offset="0" style="stop-color:#FFCCAA"/>
    <stop  offset="1" style="stop-color:#FFCCAA;stop-opacity:0"/>
  </linearGradient>
  <path id="path2991" inkscape:connector-curvature="0" fill="url(#path2991_1_)" d="M43.09,218.424h85.895v-15.915l0.012-1.197
    l0.037-1.196l0.064-1.197l0.089-1.194l0.116-1.191l0.139-1.188l0.164-1.185l0.19-1.183l0.216-1.177l0.239-1.174l0.266-1.168
    l0.289-1.162l0.315-1.153l0.339-1.15l0.363-1.142l0.387-1.133l0.412-1.121l0.435-1.118l0.459-1.104l0.484-1.098l0.505-1.083
    l0.528-1.074l0.552-1.063l0.572-1.051l0.596-1.039l0.619-1.025l0.64-1.013l0.661-0.996l0.682-0.986l0.739-1.065l0.718-1.081
    l0.695-1.098l0.674-1.109l0.648-1.124l0.628-1.136l0.602-1.15l0.581-1.162l0.555-1.174l0.531-1.182l0.505-1.197l0.481-1.206
    l0.459-1.215l0.432-1.223l0.406-1.231l0.381-1.241l0.356-1.25l0.328-1.255l0.305-1.262l0.279-1.267l0.251-1.274l0.227-1.277
    l0.2-1.283l0.172-1.286l0.146-1.291l0.12-1.292l0.094-1.295l0.066-1.296l0.04-1.298l0.013-1.298V59.367l-0.012-0.634l-0.038-0.632
    l-0.063-0.63l-0.09-0.628l-0.115-0.623l-0.137-0.618l-0.167-0.612l-0.187-0.604l-0.213-0.597l-0.236-0.588l-0.26-0.578
    l-0.283-0.566l-0.307-0.555l-0.327-0.542l-0.349-0.529l-0.371-0.514l-0.39-0.499l-0.412-0.482l-0.429-0.466l-0.447-0.448
    l-0.467-0.429l-0.481-0.41l-0.5-0.391l-0.514-0.37l-0.528-0.349l-0.54-0.329l-0.557-0.305l-0.566-0.283l-0.578-0.26l-0.588-0.236
    l-0.596-0.213l-0.604-0.189l-0.613-0.164l-0.617-0.139l-0.623-0.114l-0.628-0.089l-0.629-0.064l-0.633-0.038l-0.633-0.013
    l-0.634,0.013l-0.634,0.038l-0.629,0.064l-0.627,0.089l-0.624,0.114l-0.616,0.139l-0.613,0.164l-0.604,0.189l-0.596,0.213
    l-0.59,0.236l-0.578,0.26l-0.566,0.283l-0.553,0.305l-0.542,0.329l-0.528,0.349l-0.514,0.37l-0.499,0.391l-0.483,0.41l-0.466,0.429
    l-0.448,0.448l-0.43,0.466l-0.41,0.482l-0.391,0.499l-0.371,0.514l-0.348,0.529l-0.33,0.542l-0.303,0.555l-0.283,0.566
    l-0.261,0.578l-0.236,0.588l-0.213,0.597l-0.189,0.604l-0.162,0.612l-0.141,0.618l-0.113,0.623l-0.089,0.628l-0.064,0.63
    l-0.038,0.632l-0.012,0.634v-13.45l-0.014-0.635l-0.039-0.635l-0.064-0.632l-0.087-0.63l-0.115-0.625l-0.141-0.62l-0.165-0.614
    l-0.188-0.607l-0.214-0.599l-0.237-0.59l-0.26-0.58l-0.284-0.568l-0.307-0.557l-0.328-0.544l-0.351-0.53l-0.374-0.516l-0.392-0.5
    l-0.411-0.485l-0.431-0.467l-0.451-0.45l-0.467-0.432l-0.483-0.412l-0.501-0.392l-0.517-0.372l-0.528-0.351l-0.545-0.329
    l-0.558-0.307l-0.567-0.284l-0.581-0.261l-0.59-0.237l-0.599-0.214l-0.607-0.189l-0.613-0.164l-0.62-0.14l-0.626-0.115l-0.63-0.089
    l-0.632-0.064l-0.635-0.039l-0.636-0.012l-0.636,0.012l-0.634,0.039l-0.634,0.064l-0.629,0.089l-0.626,0.115l-0.619,0.14
    l-0.615,0.164l-0.606,0.189l-0.6,0.214l-0.588,0.237l-0.581,0.261l-0.569,0.284l-0.557,0.307l-0.544,0.329l-0.53,0.351
    l-0.515,0.372l-0.502,0.392l-0.483,0.412l-0.467,0.432l-0.45,0.45l-0.431,0.467l-0.412,0.485l-0.393,0.5l-0.373,0.516l-0.35,0.53
    l-0.329,0.544l-0.307,0.557l-0.285,0.568l-0.26,0.58l-0.239,0.59l-0.212,0.599l-0.189,0.607l-0.165,0.614l-0.14,0.62l-0.114,0.625
    l-0.088,0.63l-0.064,0.632l-0.04,0.635l-0.013,0.635v-6.02l-0.012-0.636l-0.038-0.634l-0.064-0.633l-0.091-0.63l-0.114-0.625
    l-0.14-0.62l-0.165-0.614l-0.188-0.607L86.933,34.3l-0.238-0.59l-0.261-0.58l-0.283-0.569l-0.307-0.557l-0.33-0.544l-0.35-0.53
    l-0.371-0.516L84.4,29.914l-0.412-0.484l-0.431-0.467l-0.45-0.449l-0.467-0.432l-0.484-0.412l-0.502-0.393l-0.514-0.372
    l-0.531-0.351l-0.544-0.328l-0.556-0.308l-0.569-0.284l-0.578-0.261l-0.591-0.237l-0.599-0.213l-0.607-0.189l-0.614-0.165
    l-0.619-0.139l-0.625-0.115l-0.63-0.09l-0.634-0.063l-0.633-0.039l-0.637-0.012l-0.635,0.012l-0.635,0.039l-0.63,0.063l-0.631,0.09
    l-0.625,0.115l-0.622,0.139l-0.613,0.165l-0.607,0.189l-0.598,0.213l-0.59,0.237l-0.58,0.261l-0.569,0.284l-0.557,0.308
    l-0.544,0.328l-0.531,0.351l-0.516,0.372l-0.5,0.393l-0.484,0.412l-0.467,0.432l-0.45,0.449l-0.431,0.467l-0.412,0.484
    l-0.392,0.501l-0.372,0.516l-0.35,0.53l-0.33,0.544l-0.306,0.557l-0.284,0.569l-0.261,0.58l-0.237,0.59l-0.213,0.599l-0.189,0.607
    l-0.165,0.614l-0.141,0.62l-0.114,0.625l-0.089,0.63l-0.063,0.633l-0.039,0.634l-0.012,0.636V-9.016l-0.013-0.633l-0.038-0.633
    l-0.064-0.63l-0.088-0.628l-0.115-0.623l-0.14-0.618l-0.163-0.612l-0.189-0.604l-0.212-0.597l-0.236-0.588l-0.26-0.578
    l-0.283-0.566l-0.306-0.555l-0.328-0.542l-0.349-0.529l-0.37-0.514l-0.391-0.499l-0.41-0.482l-0.429-0.466l-0.448-0.448
    l-0.466-0.429l-0.482-0.41l-0.499-0.391l-0.514-0.371l-0.529-0.349l-0.542-0.328l-0.555-0.305L47.4-23.226l-0.577-0.26
    l-0.588-0.237l-0.597-0.212l-0.604-0.189l-0.613-0.164l-0.617-0.139L43.18-24.54l-0.627-0.089l-0.63-0.064l-0.633-0.038
    l-0.633-0.013l-0.634,0.013l-0.633,0.038l-0.63,0.064l-0.627,0.089l-0.623,0.114l-0.618,0.139l-0.612,0.164l-0.604,0.189
    l-0.597,0.212l-0.587,0.237l-0.578,0.26l-0.567,0.283l-0.555,0.305l-0.542,0.328l-0.529,0.349l-0.514,0.371l-0.499,0.391
    l-0.482,0.41l-0.465,0.429l-0.448,0.448l-0.43,0.466l-0.41,0.482l-0.391,0.499l-0.37,0.514l-0.35,0.529l-0.328,0.542l-0.306,0.555
    l-0.282,0.566l-0.261,0.578l-0.236,0.588l-0.212,0.597l-0.189,0.604l-0.164,0.612l-0.139,0.618l-0.115,0.623l-0.089,0.628
    l-0.064,0.63l-0.038,0.633l-0.013,0.633v93.818l-0.369-0.8l-0.394-0.79l-0.416-0.777l-0.439-0.764l-0.461-0.752l-0.484-0.737
    l-0.506-0.723l-0.526-0.708l-0.547-0.691l-0.568-0.675l-0.587-0.659l-0.607-0.64l-0.625-0.621l-0.644-0.604l-0.661-0.583
    l-0.678-0.564l-0.695-0.543l-0.71-0.523l-0.726-0.5l-0.739-0.479l-0.754-0.458l-0.768-0.435l-0.779-0.412l-0.792-0.389L9.65,69.611
    L8.836,69.27l-0.823-0.317l-0.832-0.292l-0.84-0.268l-0.848-0.242l-0.854-0.217l-0.86-0.192l-0.867-0.167l-0.871-0.14l-0.875-0.115
    l-0.877-0.088l-0.879-0.062l-0.881-0.037l-0.882-0.01l-0.881,0.016l-0.881,0.043l-0.88,0.068l-0.876,0.095l-0.625,0.089
    l-0.621,0.114l-0.616,0.14l-0.609,0.164l-0.603,0.188l-0.595,0.212l-0.587,0.236l-0.575,0.258l-0.566,0.282l-0.553,0.304
    l-0.542,0.326l-0.527,0.348l-0.513,0.369l-0.499,0.388l-0.482,0.408l-0.465,0.427l-0.448,0.445l-0.429,0.462l-0.412,0.48
    l-0.391,0.496l-0.372,0.511l-0.35,0.525l-0.33,0.539l-0.308,0.552l-0.285,0.563l-0.263,0.574l-0.239,0.585l-0.215,0.593
    l-0.191,0.602l-0.167,0.609l-0.143,0.615l-0.118,0.621l-0.093,0.625l-0.068,0.628l-0.043,0.63l-0.018,0.631l0.007,0.631
    l0.033,0.631l0.058,0.629l0.083,0.626l0.108,0.622l0.133,0.618l0.158,0.612l0.182,0.605l0.206,0.597l0.229,0.589l0.252,0.578
    l0.277,0.569l0.298,0.556l0.32,0.544l0.342,0.531l0.363,0.517l0.383,0.502l0.403,0.486l0.422,0.47l0.44,0.453l0.458,0.434
    l0.476,0.417l0.491,0.396l0.507,0.376l0.522,0.355l0.535,0.335l0.549,0.313l0.561,0.291l0.571,0.269l0.582,0.244l0.592,0.222
    l0.669,0.251l0.659,0.274l0.648,0.298l0.637,0.324l0.625,0.346l0.611,0.37l0.596,0.393l0.583,0.414l0.565,0.436l0.549,0.457
    l0.533,0.476l0.513,0.496l0.495,0.516l0.475,0.532l0.455,0.551l0.434,0.568l0.413,0.582l0.391,0.597l0.368,0.613l0.345,0.625
    l0.321,0.638l0.297,0.65l0.273,0.659l0.248,0.67l0.223,0.679l0.197,0.687l0.171,0.692l0.146,0.7l0.12,0.704l0.093,0.708
    l0.066,0.711l0.04,0.712l0.013,0.716v6.245l0.013,1.396l0.039,1.394l0.065,1.395l0.09,1.392l0.117,1.39l0.143,1.388l0.168,1.384
    l0.195,1.382l0.22,1.378l0.246,1.372l0.271,1.369l0.297,1.362l0.322,1.355l0.348,1.353l0.372,1.344l0.399,1.338l0.422,1.328
    l0.447,1.321l0.472,1.313l0.497,1.303l0.521,1.295l0.545,1.283l0.569,1.274l0.592,1.262l0.616,1.253l0.639,1.24l0.662,1.227
    l0.685,1.215l0.707,1.202l0.729,1.188l0.752,1.177l0.773,1.159l0.795,1.147l0.817,1.133l0.837,1.115l0.858,1.098l0.878,1.083
    l0.898,1.069l0.918,1.051l0.937,1.03l0.957,1.017l0.975,0.998l0.993,0.979l1.012,0.96l1.03,0.94l1.047,0.923l1.064,0.902
    l1.081,0.882l1.097,0.861l0.657,0.522l0.64,0.543l0.623,0.563l0.605,0.584l0.586,0.602l0.566,0.618l0.548,0.637l0.526,0.654
    l0.506,0.672l0.485,0.686l0.462,0.701l0.44,0.715l0.417,0.728l0.394,0.741l0.371,0.753l0.347,0.766l0.323,0.776l0.298,0.785
    l0.273,0.794l0.248,0.804l0.223,0.809l0.196,0.817l0.171,0.82l0.145,0.829l0.119,0.829l0.092,0.835l0.066,0.838l0.04,0.838
    l0.013,0.841v15.915V218.424z"/>
  
    <path id="path2993" inkscape:connector-curvature="0" fill="none" stroke="#000000" stroke-width="9" stroke-linecap="round" stroke-linejoin="round" d="
    M139.354,169.949l0.74-1.065l0.718-1.084l0.695-1.095l0.673-1.109l0.649-1.124l0.626-1.139l0.604-1.147l0.579-1.162l0.555-1.174
    l0.531-1.185l0.507-1.194l0.481-1.206l0.459-1.215l0.431-1.224l0.407-1.233l0.379-1.241l0.356-1.248l0.33-1.254l0.304-1.263
    l0.277-1.269l0.254-1.273l0.225-1.278l0.199-1.282l0.175-1.287l0.146-1.289l0.12-1.292l0.094-1.297l0.065-1.295l0.039-1.297
    l0.015-1.298 M24.927-9.014v113.04 M56.386-9.014v98.04 M150.986,59.369v74.061 M119.528,45.92v43.106 M87.954,39.899v49.127
     M3.579,122.192v-6.245 M43.087,202.512v15.915 M128.982,202.512v15.915 M56.386-9.016l-0.012-0.633l-0.039-0.633l-0.063-0.63
    l-0.089-0.627l-0.114-0.623l-0.14-0.618l-0.164-0.611l-0.188-0.605l-0.212-0.596l-0.237-0.587l-0.259-0.578l-0.283-0.566
    l-0.306-0.555l-0.328-0.542l-0.35-0.528l-0.37-0.514l-0.39-0.499l-0.41-0.482L52-19.911l-0.447-0.448l-0.466-0.43l-0.482-0.41
    l-0.499-0.391l-0.515-0.371l-0.528-0.349l-0.542-0.328l-0.555-0.305L47.4-23.225l-0.578-0.26l-0.587-0.236l-0.597-0.213
    l-0.604-0.188l-0.613-0.165l-0.618-0.139L43.18-24.54l-0.627-0.088l-0.63-0.064l-0.632-0.038l-0.634-0.013l-0.633,0.013
    l-0.633,0.038l-0.63,0.064l-0.627,0.088l-0.623,0.114l-0.619,0.139l-0.611,0.165l-0.605,0.188l-0.597,0.213l-0.587,0.236
    l-0.578,0.26l-0.567,0.283l-0.555,0.305l-0.542,0.328l-0.528,0.349l-0.514,0.371l-0.499,0.391l-0.482,0.41l-0.465,0.43
    l-0.448,0.448l-0.429,0.466l-0.411,0.482l-0.391,0.499l-0.37,0.514l-0.35,0.528l-0.327,0.542l-0.306,0.555l-0.283,0.566
    l-0.26,0.578l-0.236,0.587l-0.213,0.596l-0.188,0.605l-0.165,0.611l-0.139,0.618l-0.114,0.623l-0.088,0.627l-0.064,0.63
    l-0.038,0.633l-0.013,0.633 M32.71,181.409l-1.097-0.861l-1.08-0.882l-1.064-0.902l-1.046-0.923l-1.03-0.94l-1.012-0.96
    l-0.994-0.979l-0.975-0.998l-0.956-1.017l-0.938-1.03l-0.918-1.051l-0.898-1.069l-0.879-1.083l-0.857-1.098l-0.837-1.118
    l-0.816-1.13l-0.796-1.147l-0.773-1.159l-0.751-1.177l-0.729-1.188l-0.708-1.202l-0.685-1.215l-0.661-1.227l-0.64-1.24
    l-0.616-1.253l-0.592-1.262l-0.568-1.274l-0.544-1.285l-0.521-1.293l-0.497-1.303l-0.472-1.313l-0.447-1.321l-0.423-1.33
    l-0.398-1.336l-0.373-1.344l-0.348-1.353l-0.323-1.355l-0.297-1.362l-0.271-1.369l-0.246-1.372l-0.22-1.378l-0.195-1.382
    l-0.169-1.384l-0.142-1.388l-0.117-1.39l-0.091-1.394l-0.065-1.393l-0.04-1.394l-0.013-1.396 M-5.872,67.342l-0.625,0.089
    l-0.621,0.115l-0.616,0.139l-0.61,0.164l-0.603,0.188l-0.595,0.213l-0.586,0.235l-0.576,0.259l-0.565,0.281l-0.553,0.305
    l-0.541,0.326l-0.528,0.347l-0.513,0.369l-0.498,0.388l-0.482,0.408l-0.466,0.427l-0.447,0.445l-0.43,0.462l-0.411,0.48
    l-0.392,0.496l-0.371,0.511l-0.351,0.525l-0.329,0.539l-0.307,0.552l-0.286,0.563l-0.262,0.575l-0.239,0.584l-0.215,0.593
    l-0.192,0.603l-0.167,0.608l-0.143,0.616l-0.119,0.62l-0.093,0.625l-0.068,0.627l-0.043,0.63l-0.018,0.632l0.006,0.631l0.033,0.63
    l0.058,0.629l0.084,0.626l0.108,0.622l0.132,0.618l0.157,0.611l0.182,0.605l0.206,0.597l0.23,0.588l0.252,0.579l0.276,0.568
    l0.299,0.557l0.32,0.544l0.341,0.531l0.364,0.518l0.383,0.502l0.403,0.486l0.422,0.469l0.44,0.453l0.458,0.435l0.475,0.417
    l0.491,0.396l0.507,0.376l0.522,0.356l0.535,0.335l0.549,0.313l0.561,0.29l0.572,0.269l0.582,0.245l0.592,0.223 M87.959,39.896
    l-0.012-0.636l-0.04-0.635l-0.064-0.633l-0.088-0.63l-0.115-0.625l-0.14-0.621l-0.165-0.614l-0.188-0.607l-0.213-0.599
    l-0.238-0.589l-0.26-0.58l-0.285-0.569l-0.308-0.558l-0.329-0.544l-0.35-0.53l-0.373-0.516l-0.391-0.5l-0.412-0.485l-0.432-0.467
    l-0.45-0.45l-0.467-0.431l-0.483-0.412l-0.501-0.393l-0.515-0.372l-0.531-0.35l-0.544-0.329l-0.557-0.307l-0.567-0.284l-0.581-0.26
    l-0.59-0.238l-0.599-0.213l-0.607-0.19l-0.613-0.164l-0.621-0.14l-0.626-0.114l-0.629-0.09l-0.632-0.063l-0.635-0.039l-0.635-0.013
    l-0.636,0.013l-0.634,0.039l-0.633,0.063l-0.629,0.09l-0.625,0.114l-0.62,0.14l-0.613,0.164l-0.607,0.19l-0.598,0.213l-0.591,0.238
    l-0.58,0.26l-0.569,0.284l-0.556,0.307l-0.544,0.329l-0.531,0.35l-0.515,0.372l-0.501,0.393l-0.484,0.412l-0.468,0.431l-0.45,0.45
    l-0.431,0.467l-0.412,0.485l-0.392,0.5l-0.372,0.516l-0.35,0.53l-0.33,0.544l-0.307,0.558l-0.284,0.569l-0.261,0.58l-0.236,0.589
    l-0.214,0.599l-0.189,0.607l-0.165,0.614l-0.139,0.621l-0.115,0.625l-0.089,0.63l-0.064,0.633L56.4,39.26l-0.012,0.636
     M87.959,45.915l0.013-0.635l0.04-0.635l0.063-0.632l0.091-0.63l0.114-0.625l0.14-0.62l0.164-0.614l0.189-0.607l0.213-0.599
    l0.236-0.59l0.263-0.58l0.283-0.569l0.307-0.557l0.33-0.544l0.35-0.53l0.371-0.516l0.391-0.5l0.413-0.484l0.431-0.467l0.45-0.45
    l0.467-0.431l0.484-0.412l0.501-0.392l0.515-0.372l0.531-0.351l0.543-0.329l0.558-0.306l0.568-0.285l0.579-0.261l0.59-0.237
    l0.599-0.214l0.607-0.189l0.614-0.164l0.621-0.14l0.625-0.115l0.631-0.089l0.632-0.064l0.636-0.038l0.635-0.013l0.635,0.013
    l0.637,0.038l0.631,0.064l0.631,0.089l0.624,0.115l0.621,0.14l0.614,0.164l0.607,0.189l0.599,0.214l0.59,0.237l0.578,0.261
    l0.569,0.285l0.558,0.306l0.543,0.329l0.531,0.351l0.517,0.372l0.499,0.392l0.485,0.412l0.467,0.431l0.449,0.45l0.431,0.467
    l0.412,0.484l0.393,0.5l0.371,0.516l0.352,0.53l0.328,0.544l0.307,0.557l0.283,0.569l0.263,0.58l0.237,0.59l0.213,0.599
    l0.189,0.607l0.164,0.614l0.14,0.62l0.114,0.625l0.09,0.63l0.064,0.632l0.038,0.635l0.012,0.635 M3.584,115.941l-0.014-0.714
    l-0.04-0.714l-0.067-0.711l-0.093-0.708l-0.12-0.705l-0.146-0.697l-0.172-0.695l-0.197-0.687l-0.223-0.677l-0.248-0.67l-0.273-0.66
    l-0.297-0.649l-0.322-0.638l-0.345-0.627l-0.368-0.61l-0.391-0.598l-0.413-0.584l-0.434-0.566l-0.455-0.551l-0.475-0.533
    l-0.495-0.515l-0.514-0.497l-0.532-0.477l-0.549-0.456l-0.566-0.435l-0.582-0.415L-5.34,99.76l-0.612-0.369l-0.624-0.348
    l-0.637-0.321l-0.649-0.301l-0.659-0.274l-0.668-0.249 M-5.869,67.34l0.876-0.095l0.88-0.068l0.88-0.042l0.882-0.016l0.882,0.01
    l0.882,0.036l0.879,0.063l0.877,0.088l0.875,0.114l0.87,0.14l0.867,0.167l0.861,0.191l0.854,0.218l0.849,0.241l0.84,0.268
    l0.832,0.292l0.823,0.317l0.814,0.341l0.802,0.365l0.792,0.389l0.78,0.412l0.768,0.434l0.753,0.458l0.74,0.479l0.726,0.501
    l0.711,0.522l0.694,0.544l0.679,0.563l0.661,0.583l0.644,0.604l0.625,0.621l0.607,0.64l0.587,0.658l0.568,0.675l0.547,0.691
    l0.526,0.708l0.506,0.723l0.484,0.737l0.461,0.751l0.439,0.765l0.416,0.777l0.393,0.789l0.37,0.802 M43.093,202.503l-0.013-0.838
    l-0.04-0.841l-0.066-0.835l-0.093-0.835l-0.119-0.832l-0.145-0.826l-0.171-0.823l-0.197-0.814l-0.222-0.812l-0.248-0.804
    l-0.273-0.794l-0.297-0.785l-0.323-0.773l-0.347-0.766l-0.371-0.753l-0.394-0.741l-0.417-0.73l-0.441-0.715l-0.462-0.701
    l-0.484-0.686l-0.506-0.669l-0.527-0.654l-0.547-0.64l-0.567-0.618l-0.585-0.602l-0.605-0.581l-0.623-0.563l-0.64-0.543
    l-0.658-0.525 M128.988,202.503l0.012-1.197l0.037-1.196l0.064-1.194l0.088-1.194l0.117-1.191l0.139-1.19l0.164-1.186l0.19-1.183
    l0.216-1.177l0.239-1.174l0.266-1.165l0.289-1.162l0.315-1.156l0.339-1.147l0.363-1.142l0.387-1.133l0.412-1.124l0.435-1.115
    l0.459-1.106l0.482-1.095l0.507-1.086l0.528-1.074l0.551-1.063l0.573-1.051l0.596-1.036l0.619-1.025l0.64-1.013l0.66-0.999
    l0.683-0.983 M24.933,104.02l-0.013,1.073l-0.039,1.073l-0.064,1.072l-0.09,1.069l-0.115,1.068l-0.142,1.063l-0.167,1.062
    l-0.193,1.056l-0.217,1.052l-0.242,1.046l-0.268,1.041l-0.292,1.031l-0.318,1.026l-0.341,1.017l-0.367,1.01l-0.39,1l-0.396,1.015
    l-0.373,1.023l-0.349,1.032l-0.325,1.039l-0.3,1.048l-0.276,1.055l-0.251,1.06l-0.226,1.065l-0.202,1.069L18.8,131.26l-0.152,1.079
    l-0.126,1.082l-0.102,1.084 M119.532,59.366l0.014-0.633l0.038-0.632l0.063-0.63l0.088-0.627l0.115-0.624l0.139-0.617l0.164-0.613
    l0.189-0.604l0.213-0.597l0.236-0.588l0.261-0.578l0.283-0.567l0.303-0.555l0.33-0.542l0.348-0.529l0.371-0.514l0.391-0.499
    l0.409-0.482l0.431-0.466l0.448-0.448l0.466-0.429l0.483-0.41l0.497-0.391l0.516-0.371l0.527-0.349l0.541-0.329l0.555-0.305
    l0.566-0.283l0.578-0.26l0.59-0.237l0.596-0.212l0.604-0.189l0.611-0.163l0.618-0.14l0.624-0.114l0.627-0.089l0.629-0.064
    l0.634-0.038l0.634-0.012l0.633,0.012l0.631,0.038l0.631,0.064l0.628,0.089l0.623,0.114l0.617,0.14l0.613,0.163l0.604,0.189
    l0.596,0.212l0.587,0.237l0.578,0.26l0.567,0.283l0.555,0.305l0.542,0.329l0.528,0.349l0.514,0.371l0.5,0.391l0.481,0.41
    l0.467,0.429l0.447,0.448l0.429,0.466l0.412,0.482l0.39,0.499l0.369,0.514l0.351,0.529l0.327,0.542l0.307,0.555l0.283,0.567
    l0.26,0.578l0.236,0.588l0.213,0.597l0.187,0.604l0.165,0.613l0.139,0.617l0.114,0.624l0.091,0.627l0.063,0.63l0.039,0.632
    l0.012,0.633"/>
</g>
</svg>
