<?xml version="1.0" encoding="utf-8"?>
<!-- Generator: Adobe Illustrator 16.0.0, SVG Export Plug-In . SVG Version: 6.00 Build 0)  -->
<!DOCTYPE svg PUBLIC "-//W3C//DTD SVG 1.1//EN" "http://www.w3.org/Graphics/SVG/1.1/DTD/svg11.dtd">
<svg version="1.1"
	 id="_x30_" xmlns:inkscape="http://www.inkscape.org/namespaces/inkscape" xmlns:rdf="http://www.w3.org/1999/02/22-rdf-syntax-ns#" xmlns:cc="http://creativecommons.org/ns#" xmlns:dc="http://purl.org/dc/elements/1.1/" xmlns:sodipodi="http://sodipodi.sourceforge.net/DTD/sodipodi-0.dtd" xmlns:svg="http://www.w3.org/2000/svg" xmlns:ns1="http://sozi.baierouge.fr" inkscape:version="0.47 r22583" sodipodi:docname="Stop_02_Sign.svg"
	 xmlns="http://www.w3.org/2000/svg" xmlns:xlink="http://www.w3.org/1999/xlink" x="0px" y="0px" width="443.508px"
	 height="424.941px" viewBox="0 0 443.508 424.941" enable-background="new 0 0 443.508 424.941" xml:space="preserve">
<sodipodi:namedview  showgrid="false" inkscape:cy="264.31061" inkscape:cx="179.00708" borderopacity="1" objecttolerance="10" inkscape:zoom="1.2566594" gridtolerance="10" pagecolor="#ffffff" guidetolerance="10" bordercolor="#666666" id="namedview12" inkscape:window-height="1115" inkscape:pageopacity="0" inkscape:current-layer="0" inkscape:window-width="1882" inkscape:window-x="0" inkscape:pageshadow="2" inkscape:window-y="0" inkscape:window-maximized="0">
	</sodipodi:namedview>
<path id="_x35_" opacity="0.5" fill="#DA251D" d="M433.477,300.004l-62,61.869l-62.066,61.869h-87.656h-87.722l-62-61.869
	L10.03,300.004v-87.537v-87.464l62.001-61.935l62-61.87h87.722h87.656l62.066,61.87l62,61.935v87.464V300.004z"/>
<path id="_x36_" fill="#FFFFFF" d="M412.417,293.262l-54.849,54.734l-6.692-6.678l54.85-54.734L412.417,293.262z M357.568,347.996
	l-54.916,54.732l-6.691-6.678l54.915-54.732L357.568,347.996z M302.652,402.729l-1.378,1.375h-1.967v-4.715L302.652,402.729
	L302.652,402.729z M299.307,404.104h-77.551v-9.428h77.551V404.104z M221.756,404.104h-77.615v-9.428h77.615V404.104z
	 M144.141,404.104h-1.968l-1.378-1.375l3.346-3.34V404.104L144.141,404.104z M140.795,402.729l-54.849-54.732l6.692-6.678
	l54.85,54.732L140.795,402.729z M85.946,347.996l-54.85-54.734l6.692-6.678l54.849,54.734L85.946,347.996z M31.096,293.262
	l-1.377-1.373v-1.965h4.724L31.096,293.262z M29.719,289.924v-77.451h9.448v77.451H29.719z M29.719,212.473v-77.387h9.448v77.387
	H29.719z M29.719,135.086v-1.964l1.377-1.375l3.346,3.339H29.719L29.719,135.086z M31.096,131.748l54.85-54.798l6.692,6.678
	l-54.849,54.799L31.096,131.748z M85.946,76.949l54.849-54.733l6.692,6.678l-54.85,54.732L85.946,76.949z M140.795,22.216
	l1.378-1.375h1.968v4.714L140.795,22.216L140.795,22.216z M144.141,20.841h77.615v9.428h-77.615V20.841z M221.756,20.841h77.551
	v9.428h-77.551V20.841z M299.307,20.841h1.967l1.378,1.375l-3.345,3.339V20.841L299.307,20.841z M302.652,22.216l54.916,54.733
	l-6.692,6.678L295.96,28.895L302.652,22.216z M357.568,76.949l54.849,54.798l-6.691,6.678l-54.85-54.799L357.568,76.949
	L357.568,76.949z M412.417,131.748l1.378,1.375v1.964h-4.724L412.417,131.748L412.417,131.748z M413.794,135.086v77.387h-9.448
	v-77.387H413.794z M413.794,212.473v77.451h-9.448v-77.451H413.794z M413.794,289.924v1.965l-1.378,1.373l-3.346-3.338H413.794z"/>
<g id="text2837">
	<path id="path3617" fill="#FFFFFF" d="M62.709,228.691l10.8-0.941c0.512,4.318,1.702,7.861,3.571,10.629
		c1.869,2.768,4.771,5.006,8.705,6.713c3.935,1.709,8.361,2.563,13.279,2.563c4.368,0,8.223-0.648,11.568-1.943
		c3.344-1.295,5.833-3.072,7.465-5.328c1.633-2.258,2.449-4.723,2.449-7.391c0-2.711-0.787-5.074-2.36-7.098
		c-1.574-2.021-4.171-3.719-7.791-5.094c-2.321-0.902-7.456-2.307-15.404-4.209c-7.948-1.906-13.515-3.702-16.702-5.389
		c-4.131-2.16-7.21-4.839-9.236-8.039c-2.026-3.2-3.04-6.781-3.04-10.747c0-4.358,1.239-8.43,3.718-12.219
		c2.479-3.789,6.098-6.664,10.859-8.627c4.761-1.963,10.053-2.944,15.875-2.945c6.414,0,12.069,1.031,16.968,3.092
		c4.898,2.062,8.666,5.094,11.302,9.099c2.636,4.004,4.052,8.538,4.249,13.603l-10.978,0.825c-0.59-5.457-2.587-9.58-5.99-12.366
		c-3.403-2.788-8.43-4.182-15.079-4.182c-6.925,0-11.971,1.266-15.139,3.798c-3.167,2.533-4.751,5.584-4.751,9.158
		c0,3.102,1.122,5.654,3.364,7.656c2.204,2.002,7.958,4.053,17.263,6.154s15.689,3.936,19.151,5.506
		c5.036,2.315,8.754,5.251,11.154,8.804c2.4,3.553,3.6,7.646,3.601,12.277c0,4.594-1.318,8.924-3.954,12.986
		c-2.636,4.063-6.423,7.223-11.361,9.48c-4.938,2.258-10.495,3.387-16.672,3.387c-7.83,0-14.391-1.139-19.682-3.416
		c-5.292-2.277-9.443-5.701-12.453-10.275c-3.01-4.574-4.593-9.746-4.751-15.518L62.709,228.691z"/>
	<path id="path3619" fill="#FFFFFF" d="M169.353,256.424v-76.143h-28.505v-10.188h68.579v10.188h-28.624v76.143H169.353z"/>
	<path id="path3621" fill="#FFFFFF" d="M217.749,214.379c0-14.331,3.856-25.549,11.567-33.654
		c7.712-8.107,17.667-12.161,29.864-12.161c7.986,0,15.187,1.904,21.601,5.712c6.413,3.809,11.303,9.119,14.666,15.93
		c3.364,6.811,5.045,14.536,5.045,23.173c0,8.754-1.771,16.586-5.311,23.496c-3.541,6.91-8.558,12.141-15.05,15.693
		c-6.493,3.553-13.496,5.328-21.011,5.328c-8.144,0-15.423-1.961-21.836-5.887s-11.273-9.285-14.577-16.078
		C219.402,229.141,217.75,221.955,217.749,214.379L217.749,214.379z M229.553,214.555c0,10.404,2.803,18.6,8.409,24.586
		c5.606,5.988,12.641,8.98,21.1,8.98c8.616,0,15.708-3.023,21.275-9.068c5.568-6.045,8.351-14.623,8.353-25.734
		c0-7.027-1.191-13.161-3.57-18.403c-2.381-5.24-5.863-9.304-10.446-12.189c-4.585-2.886-9.729-4.329-15.434-4.329
		c-8.106,0-15.079,2.778-20.922,8.333c-5.844,5.556-8.764,14.83-8.764,27.826L229.553,214.555z"/>
	<path id="path3623" fill="#FFFFFF" d="M315.191,256.424v-86.329h32.637c5.744,0,10.132,0.274,13.162,0.824
		c4.249,0.707,7.811,2.051,10.681,4.033c2.872,1.983,5.185,4.76,6.936,8.333c1.75,3.573,2.627,7.499,2.627,11.778
		c0,7.342-2.342,13.554-7.023,18.638c-4.684,5.084-13.142,7.627-25.379,7.627h-22.19v35.098L315.191,256.424z M326.64,211.138
		h22.369c7.396,0,12.648-1.374,15.757-4.123c3.109-2.747,4.663-6.614,4.663-11.601c0-3.611-0.916-6.703-2.745-9.274
		c-1.828-2.572-4.239-4.269-7.229-5.094c-1.929-0.511-5.489-0.766-10.683-0.766h-22.131L326.64,211.138z"/>
</g>
</svg>
